<?xml version="1.0" encoding="UTF-8" standalone="no"?>
<svg
   xmlns:dc="http://purl.org/dc/elements/1.1/"
   xmlns:cc="http://creativecommons.org/ns#"
   xmlns:rdf="http://www.w3.org/1999/02/22-rdf-syntax-ns#"
   xmlns:svg="http://www.w3.org/2000/svg"
   xmlns="http://www.w3.org/2000/svg"
   xmlns:sodipodi="http://sodipodi.sourceforge.net/DTD/sodipodi-0.dtd"
   xmlns:inkscape="http://www.inkscape.org/namespaces/inkscape"
   version="1.0"
   width="622"
   height="574"
   viewBox="-1 -1 622 574"
   id="svg16"
   sodipodi:docname="family.svg"
   inkscape:version="0.92.1 r15371">
  <defs
     id="defs20" />
  <sodipodi:namedview
     pagecolor="#ffffff"
     bordercolor="#666666"
     borderopacity="1"
     objecttolerance="10"
     gridtolerance="10"
     guidetolerance="10"
     inkscape:pageopacity="0"
     inkscape:pageshadow="2"
     inkscape:window-width="1867"
     inkscape:window-height="1056"
     id="namedview18"
     showgrid="false"
     inkscape:zoom="1.1629073"
     inkscape:cx="363.91391"
     inkscape:cy="262.80998"
     inkscape:window-x="53"
     inkscape:window-y="24"
     inkscape:window-maximized="1"
     inkscape:current-layer="svg16" />
  <metadata
     id="metadata2">
    <rdf:RDF>
      <cc:Work
         rdf:about="">
        <dc:format>image/svg+xml</dc:format>
        <dc:type
           rdf:resource="http://purl.org/dc/dcmitype/StillImage" />
      </cc:Work>
    </rdf:RDF>
  </metadata>
  <circle
     cx="178.9501"
     cy="46.58577"
     r="46.545212"
     id="circle4" />
  <path
     d="m 172.50539,388.15534 v 161.83399 c -0.24346,29.40221 -44.01041,29.40221 -44.39709,0 V 388.15534 H 70.821751 L 132.40479,171.89962 H 122.37964 L 86.57554,295.0651 C 77.524278,322.30474 40.689004,311.27714 49.339286,282.17574 L 89.43986,148.98509 c 4.61158,-15.29544 23.8885,-42.30448 57.28657,-42.96472 h 64.44741 c 32.43566,0.66024 51.79279,27.89844 57.28657,42.96472 l 40.1006,133.19065 c 8.1347,28.95816 -28.40842,40.84508 -37.23628,12.88936 l -35.8041,-123.16548 h -11.45732 l 63.01524,216.25572 H 228.3598 v 161.83399 c 0.4583,29.40221 -43.13678,29.25897 -42.96493,0 V 388.15534 Z"
     id="path6"
     inkscape:connector-curvature="0" />
  <path
     d="m 422.49589,106.02037 c -35.78976,0 -58.71876,30.98756 -58.71876,61.58276 v 143.21573 c -0.3294,27.98432 39.966,27.98432 40.10064,0 V 179.06038 h 10.02512 v 363.76815 c -0.62156,37.98085 53.04736,36.89241 52.99008,0 V 330.86906 h 8.593 v 211.95947 c 0.70176,36.89241 54.65136,37.98085 54.4222,0 V 179.06038 h 10.02516 v 131.75848 c -0.4726,28.19916 39.61368,28.19916 40.10056,0 V 167.60313 c -0.5728,-30.5952 -24.36108,-61.03424 -60.15084,-61.58276 z"
     id="path8"
     inkscape:connector-curvature="0" />
  <circle
     cx="471.90546"
     cy="46.58577"
     r="46.545212"
     id="circle10" />
</svg>
